<svg xmlns="http://www.w3.org/2000/svg" viewBox="0 0 500 500" width="500" height="500"><rect width="500" height="500" fill="#16161d"/><ellipse cx="250" cy="130" rx="28" ry="69" fill="#60a5fa" opacity="0.80" transform="rotate(0.0 250 250)"/>
<ellipse cx="250" cy="130" rx="34" ry="91" fill="#60a5fa" opacity="0.77" transform="rotate(30.0 250 250)"/>
<ellipse cx="250" cy="130" rx="50" ry="80" fill="#34d399" opacity="0.56" transform="rotate(60.0 250 250)"/>
<ellipse cx="250" cy="130" rx="49" ry="77" fill="#60a5fa" opacity="0.71" transform="rotate(90.0 250 250)"/>
<ellipse cx="250" cy="130" rx="37" ry="82" fill="#60a5fa" opacity="0.89" transform="rotate(120.0 250 250)"/>
<ellipse cx="250" cy="130" rx="54" ry="114" fill="#60a5fa" opacity="0.76" transform="rotate(150.0 250 250)"/>
<ellipse cx="250" cy="130" rx="56" ry="126" fill="#60a5fa" opacity="0.85" transform="rotate(180.0 250 250)"/>
<ellipse cx="250" cy="130" rx="35" ry="85" fill="#60a5fa" opacity="0.60" transform="rotate(210.0 250 250)"/>
<ellipse cx="250" cy="130" rx="37" ry="92" fill="#34d399" opacity="0.64" transform="rotate(240.0 250 250)"/>
<ellipse cx="250" cy="130" rx="31" ry="94" fill="#f43f5e" opacity="0.67" transform="rotate(270.0 250 250)"/>
<ellipse cx="250" cy="130" rx="37" ry="61" fill="#60a5fa" opacity="0.82" transform="rotate(300.0 250 250)"/>
<ellipse cx="250" cy="130" rx="60" ry="96" fill="#f43f5e" opacity="0.81" transform="rotate(330.0 250 250)"/>
<circle cx="250" cy="250" r="32" fill="#f43f5e"/><text x="480" y="490" font-family="JetBrains Mono, monospace" font-size="22" fill="#60a5fa" text-anchor="end" opacity="0.9">#1001</text><text x="20" y="490" font-family="JetBrains Mono, monospace" font-size="14" fill="#f43f5e" opacity="0.8">zkCEX</text></svg>