<svg xmlns="http://www.w3.org/2000/svg" viewBox="0 0 500 500" width="500" height="500"><rect width="500" height="500" fill="#111827"/><circle cx="261" cy="144" r="6" fill="#84cc16"/>
<line x1="261" y1="144" x2="132" y2="365" stroke="#ec4899" stroke-width="1.02" opacity="0.6"/>
<line x1="261" y1="144" x2="92" y2="163" stroke="#ec4899" stroke-width="0.93" opacity="0.6"/>
<line x1="261" y1="144" x2="102" y2="365" stroke="#ec4899" stroke-width="1.23" opacity="0.6"/>
<circle cx="132" cy="365" r="7" fill="#84cc16"/>
<line x1="132" y1="365" x2="403" y2="88" stroke="#ec4899" stroke-width="0.81" opacity="0.6"/>
<line x1="132" y1="365" x2="72" y2="205" stroke="#ec4899" stroke-width="1.29" opacity="0.6"/>
<line x1="132" y1="365" x2="398" y2="112" stroke="#ec4899" stroke-width="1.03" opacity="0.6"/>
<circle cx="391" cy="361" r="3" fill="#84cc16"/>
<line x1="391" y1="361" x2="422" y2="267" stroke="#ec4899" stroke-width="1.13" opacity="0.6"/>
<line x1="391" y1="361" x2="214" y2="389" stroke="#ec4899" stroke-width="0.73" opacity="0.6"/>
<circle cx="371" cy="373" r="8" fill="#84cc16"/>
<line x1="371" y1="373" x2="72" y2="205" stroke="#ec4899" stroke-width="1.34" opacity="0.6"/>
<line x1="371" y1="373" x2="150" y2="460" stroke="#ec4899" stroke-width="1.26" opacity="0.6"/>
<line x1="371" y1="373" x2="422" y2="267" stroke="#ec4899" stroke-width="1.27" opacity="0.6"/>
<circle cx="92" cy="163" r="3" fill="#84cc16"/>
<line x1="92" y1="163" x2="403" y2="88" stroke="#ec4899" stroke-width="1.21" opacity="0.6"/>
<line x1="92" y1="163" x2="103" y2="228" stroke="#ec4899" stroke-width="1.28" opacity="0.6"/>
<line x1="92" y1="163" x2="72" y2="205" stroke="#ec4899" stroke-width="1.34" opacity="0.6"/>
<line x1="92" y1="163" x2="422" y2="267" stroke="#ec4899" stroke-width="0.61" opacity="0.6"/>
<circle cx="102" cy="365" r="3" fill="#84cc16"/>
<line x1="102" y1="365" x2="103" y2="228" stroke="#ec4899" stroke-width="0.97" opacity="0.6"/>
<circle cx="403" cy="88" r="5" fill="#84cc16"/>
<line x1="403" y1="88" x2="72" y2="205" stroke="#ec4899" stroke-width="0.83" opacity="0.6"/>
<line x1="403" y1="88" x2="150" y2="460" stroke="#ec4899" stroke-width="1.38" opacity="0.6"/>
<line x1="403" y1="88" x2="98" y2="76" stroke="#ec4899" stroke-width="1.14" opacity="0.6"/>
<line x1="403" y1="88" x2="398" y2="112" stroke="#ec4899" stroke-width="1.48" opacity="0.6"/>
<circle cx="103" cy="228" r="7" fill="#84cc16"/>
<line x1="103" y1="228" x2="150" y2="460" stroke="#ec4899" stroke-width="1.03" opacity="0.6"/>
<line x1="103" y1="228" x2="228" y2="395" stroke="#ec4899" stroke-width="1.59" opacity="0.6"/>
<line x1="103" y1="228" x2="422" y2="267" stroke="#ec4899" stroke-width="1.30" opacity="0.6"/>
<line x1="103" y1="228" x2="214" y2="389" stroke="#ec4899" stroke-width="0.85" opacity="0.6"/>
<circle cx="72" cy="205" r="5" fill="#84cc16"/>
<line x1="72" y1="205" x2="150" y2="460" stroke="#ec4899" stroke-width="0.76" opacity="0.6"/>
<line x1="72" y1="205" x2="98" y2="76" stroke="#ec4899" stroke-width="1.26" opacity="0.6"/>
<line x1="72" y1="205" x2="422" y2="267" stroke="#ec4899" stroke-width="0.65" opacity="0.6"/>
<line x1="72" y1="205" x2="398" y2="112" stroke="#ec4899" stroke-width="0.93" opacity="0.6"/>
<line x1="72" y1="205" x2="214" y2="389" stroke="#ec4899" stroke-width="1.18" opacity="0.6"/>
<circle cx="150" cy="460" r="3" fill="#84cc16"/>
<line x1="150" y1="460" x2="228" y2="395" stroke="#ec4899" stroke-width="1.12" opacity="0.6"/>
<circle cx="98" cy="76" r="3" fill="#84cc16"/>
<circle cx="228" cy="395" r="3" fill="#84cc16"/>
<circle cx="422" cy="267" r="7" fill="#84cc16"/>
<circle cx="398" cy="112" r="4" fill="#84cc16"/>
<circle cx="214" cy="389" r="4" fill="#84cc16"/><text x="480" y="490" font-family="JetBrains Mono, monospace" font-size="22" fill="#84cc16" text-anchor="end" opacity="0.9">#16</text><text x="20" y="490" font-family="JetBrains Mono, monospace" font-size="14" fill="#3b82f6" opacity="0.8">zkCEX</text></svg>