<svg xmlns="http://www.w3.org/2000/svg" viewBox="0 0 500 500" width="500" height="500"><rect width="500" height="500" fill="#0b1020"/><circle cx="427" cy="180" r="7" fill="#f472b6"/>
<line x1="427" y1="180" x2="108" y2="150" stroke="#7c4dff" stroke-width="1.35" opacity="0.6"/>
<circle cx="392" cy="109" r="4" fill="#f472b6"/>
<line x1="392" y1="109" x2="164" y2="376" stroke="#7c4dff" stroke-width="1.56" opacity="0.6"/>
<line x1="392" y1="109" x2="423" y2="459" stroke="#7c4dff" stroke-width="1.15" opacity="0.6"/>
<circle cx="266" cy="94" r="4" fill="#f472b6"/>
<line x1="266" y1="94" x2="133" y2="288" stroke="#7c4dff" stroke-width="0.61" opacity="0.6"/>
<line x1="266" y1="94" x2="423" y2="459" stroke="#7c4dff" stroke-width="1.33" opacity="0.6"/>
<line x1="266" y1="94" x2="321" y2="286" stroke="#7c4dff" stroke-width="1.03" opacity="0.6"/>
<circle cx="164" cy="376" r="6" fill="#f472b6"/>
<line x1="164" y1="376" x2="423" y2="459" stroke="#7c4dff" stroke-width="0.92" opacity="0.6"/>
<circle cx="133" cy="288" r="4" fill="#f472b6"/>
<line x1="133" y1="288" x2="186" y2="177" stroke="#7c4dff" stroke-width="1.48" opacity="0.6"/>
<line x1="133" y1="288" x2="108" y2="150" stroke="#7c4dff" stroke-width="1.17" opacity="0.6"/>
<line x1="133" y1="288" x2="401" y2="408" stroke="#7c4dff" stroke-width="1.10" opacity="0.6"/>
<circle cx="186" cy="177" r="3" fill="#f472b6"/>
<line x1="186" y1="177" x2="139" y2="95" stroke="#7c4dff" stroke-width="1.31" opacity="0.6"/>
<line x1="186" y1="177" x2="423" y2="459" stroke="#7c4dff" stroke-width="0.79" opacity="0.6"/>
<circle cx="108" cy="150" r="4" fill="#f472b6"/>
<line x1="108" y1="150" x2="401" y2="408" stroke="#7c4dff" stroke-width="0.60" opacity="0.6"/>
<circle cx="139" cy="95" r="4" fill="#f472b6"/>
<line x1="139" y1="95" x2="423" y2="459" stroke="#7c4dff" stroke-width="0.68" opacity="0.6"/>
<line x1="139" y1="95" x2="321" y2="286" stroke="#7c4dff" stroke-width="0.92" opacity="0.6"/>
<circle cx="423" cy="459" r="4" fill="#f472b6"/>
<circle cx="367" cy="79" r="8" fill="#f472b6"/>
<line x1="367" y1="79" x2="401" y2="408" stroke="#7c4dff" stroke-width="0.64" opacity="0.6"/>
<circle cx="401" cy="408" r="5" fill="#f472b6"/>
<line x1="401" y1="408" x2="321" y2="286" stroke="#7c4dff" stroke-width="0.99" opacity="0.6"/>
<circle cx="321" cy="286" r="8" fill="#f472b6"/><text x="480" y="490" font-family="JetBrains Mono, monospace" font-size="22" fill="#f472b6" text-anchor="end" opacity="0.9">#26</text><text x="20" y="490" font-family="JetBrains Mono, monospace" font-size="14" fill="#22d3ee" opacity="0.8">zkCEX</text></svg>