<svg xmlns="http://www.w3.org/2000/svg" viewBox="0 0 500 500" width="500" height="500"><rect width="500" height="500" fill="#13111c"/><circle cx="193" cy="327" r="7" fill="#ef476f"/>
<line x1="193" y1="327" x2="263" y2="311" stroke="#9d4edd" stroke-width="1.25" opacity="0.6"/>
<line x1="193" y1="327" x2="97" y2="140" stroke="#9d4edd" stroke-width="1.17" opacity="0.6"/>
<circle cx="421" cy="211" r="8" fill="#ef476f"/>
<line x1="421" y1="211" x2="187" y2="52" stroke="#9d4edd" stroke-width="1.10" opacity="0.6"/>
<line x1="421" y1="211" x2="130" y2="205" stroke="#9d4edd" stroke-width="1.47" opacity="0.6"/>
<line x1="421" y1="211" x2="263" y2="311" stroke="#9d4edd" stroke-width="0.76" opacity="0.6"/>
<line x1="421" y1="211" x2="376" y2="213" stroke="#9d4edd" stroke-width="0.96" opacity="0.6"/>
<line x1="421" y1="211" x2="97" y2="140" stroke="#9d4edd" stroke-width="1.29" opacity="0.6"/>
<line x1="421" y1="211" x2="168" y2="342" stroke="#9d4edd" stroke-width="1.20" opacity="0.6"/>
<circle cx="109" cy="289" r="3" fill="#ef476f"/>
<line x1="109" y1="289" x2="187" y2="52" stroke="#9d4edd" stroke-width="1.31" opacity="0.6"/>
<line x1="109" y1="289" x2="97" y2="140" stroke="#9d4edd" stroke-width="1.59" opacity="0.6"/>
<line x1="109" y1="289" x2="168" y2="342" stroke="#9d4edd" stroke-width="1.55" opacity="0.6"/>
<circle cx="426" cy="388" r="5" fill="#ef476f"/>
<line x1="426" y1="388" x2="168" y2="342" stroke="#9d4edd" stroke-width="1.45" opacity="0.6"/>
<circle cx="96" cy="169" r="7" fill="#ef476f"/>
<circle cx="187" cy="52" r="3" fill="#ef476f"/>
<line x1="187" y1="52" x2="130" y2="205" stroke="#9d4edd" stroke-width="1.15" opacity="0.6"/>
<line x1="187" y1="52" x2="263" y2="311" stroke="#9d4edd" stroke-width="0.63" opacity="0.6"/>
<line x1="187" y1="52" x2="376" y2="213" stroke="#9d4edd" stroke-width="0.75" opacity="0.6"/>
<line x1="187" y1="52" x2="411" y2="200" stroke="#9d4edd" stroke-width="1.49" opacity="0.6"/>
<circle cx="130" cy="205" r="5" fill="#ef476f"/>
<line x1="130" y1="205" x2="263" y2="311" stroke="#9d4edd" stroke-width="1.47" opacity="0.6"/>
<line x1="130" y1="205" x2="441" y2="173" stroke="#9d4edd" stroke-width="1.48" opacity="0.6"/>
<line x1="130" y1="205" x2="376" y2="213" stroke="#9d4edd" stroke-width="1.43" opacity="0.6"/>
<line x1="130" y1="205" x2="97" y2="140" stroke="#9d4edd" stroke-width="0.79" opacity="0.6"/>
<circle cx="263" cy="311" r="7" fill="#ef476f"/>
<line x1="263" y1="311" x2="441" y2="173" stroke="#9d4edd" stroke-width="1.12" opacity="0.6"/>
<line x1="263" y1="311" x2="212" y2="143" stroke="#9d4edd" stroke-width="1.18" opacity="0.6"/>
<circle cx="441" cy="173" r="8" fill="#ef476f"/>
<line x1="441" y1="173" x2="411" y2="200" stroke="#9d4edd" stroke-width="0.93" opacity="0.6"/>
<line x1="441" y1="173" x2="168" y2="342" stroke="#9d4edd" stroke-width="0.98" opacity="0.6"/>
<circle cx="376" cy="213" r="6" fill="#ef476f"/>
<circle cx="411" cy="200" r="4" fill="#ef476f"/>
<line x1="411" y1="200" x2="212" y2="143" stroke="#9d4edd" stroke-width="0.94" opacity="0.6"/>
<circle cx="97" cy="140" r="6" fill="#ef476f"/>
<line x1="97" y1="140" x2="168" y2="342" stroke="#9d4edd" stroke-width="1.35" opacity="0.6"/>
<circle cx="212" cy="143" r="4" fill="#ef476f"/>
<circle cx="168" cy="342" r="5" fill="#ef476f"/><text x="480" y="490" font-family="JetBrains Mono, monospace" font-size="22" fill="#ef476f" text-anchor="end" opacity="0.9">#44</text><text x="20" y="490" font-family="JetBrains Mono, monospace" font-size="14" fill="#06d6a0" opacity="0.8">zkCEX</text></svg>