<svg xmlns="http://www.w3.org/2000/svg" viewBox="0 0 500 500" width="500" height="500"><rect width="500" height="500" fill="#111827"/><rect x="0" y="100" width="50" height="50" fill="#84cc16" opacity="0.88"/>
<rect x="0" y="250" width="50" height="50" fill="#ec4899" opacity="0.82"/>
<rect x="50" y="50" width="50" height="50" fill="#84cc16" opacity="0.78"/>
<rect x="50" y="100" width="50" height="50" fill="#3b82f6" opacity="0.64"/>
<rect x="50" y="200" width="50" height="50" fill="#84cc16" opacity="0.75"/>
<rect x="50" y="250" width="50" height="50" fill="#ec4899" opacity="0.98"/>
<rect x="50" y="300" width="50" height="50" fill="#3b82f6" opacity="0.64"/>
<rect x="50" y="350" width="50" height="50" fill="#3b82f6" opacity="0.76"/>
<rect x="50" y="450" width="50" height="50" fill="#ec4899" opacity="0.71"/>
<rect x="100" y="0" width="50" height="50" fill="#3b82f6" opacity="0.97"/>
<rect x="100" y="50" width="50" height="50" fill="#84cc16" opacity="0.68"/>
<rect x="100" y="150" width="50" height="50" fill="#ec4899" opacity="0.90"/>
<rect x="100" y="250" width="50" height="50" fill="#ec4899" opacity="0.68"/>
<rect x="100" y="350" width="50" height="50" fill="#3b82f6" opacity="0.85"/>
<rect x="150" y="150" width="50" height="50" fill="#ec4899" opacity="0.82"/>
<rect x="150" y="300" width="50" height="50" fill="#3b82f6" opacity="0.97"/>
<rect x="150" y="350" width="50" height="50" fill="#84cc16" opacity="0.70"/>
<rect x="150" y="400" width="50" height="50" fill="#84cc16" opacity="0.60"/>
<rect x="150" y="450" width="50" height="50" fill="#3b82f6" opacity="0.76"/>
<rect x="200" y="150" width="50" height="50" fill="#84cc16" opacity="0.90"/>
<rect x="200" y="200" width="50" height="50" fill="#84cc16" opacity="0.90"/>
<rect x="200" y="350" width="50" height="50" fill="#84cc16" opacity="0.77"/>
<rect x="250" y="0" width="50" height="50" fill="#84cc16" opacity="0.81"/>
<rect x="250" y="50" width="50" height="50" fill="#84cc16" opacity="0.63"/>
<rect x="250" y="250" width="50" height="50" fill="#3b82f6" opacity="0.81"/>
<rect x="250" y="300" width="50" height="50" fill="#84cc16" opacity="0.86"/>
<rect x="250" y="400" width="50" height="50" fill="#ec4899" opacity="0.63"/>
<rect x="250" y="450" width="50" height="50" fill="#ec4899" opacity="0.63"/>
<rect x="300" y="0" width="50" height="50" fill="#ec4899" opacity="0.99"/>
<rect x="300" y="150" width="50" height="50" fill="#3b82f6" opacity="0.85"/>
<rect x="300" y="300" width="50" height="50" fill="#84cc16" opacity="0.72"/>
<rect x="300" y="350" width="50" height="50" fill="#ec4899" opacity="0.86"/>
<rect x="350" y="50" width="50" height="50" fill="#3b82f6" opacity="0.67"/>
<rect x="350" y="150" width="50" height="50" fill="#3b82f6" opacity="0.83"/>
<rect x="350" y="200" width="50" height="50" fill="#ec4899" opacity="0.81"/>
<rect x="350" y="250" width="50" height="50" fill="#84cc16" opacity="0.72"/>
<rect x="350" y="350" width="50" height="50" fill="#ec4899" opacity="0.68"/>
<rect x="350" y="400" width="50" height="50" fill="#84cc16" opacity="0.63"/>
<rect x="350" y="450" width="50" height="50" fill="#ec4899" opacity="0.73"/>
<rect x="400" y="50" width="50" height="50" fill="#84cc16" opacity="0.95"/>
<rect x="400" y="150" width="50" height="50" fill="#3b82f6" opacity="0.83"/>
<rect x="400" y="250" width="50" height="50" fill="#3b82f6" opacity="0.81"/>
<rect x="400" y="300" width="50" height="50" fill="#ec4899" opacity="0.71"/>
<rect x="400" y="350" width="50" height="50" fill="#3b82f6" opacity="0.77"/>
<rect x="450" y="100" width="50" height="50" fill="#ec4899" opacity="0.61"/>
<rect x="450" y="200" width="50" height="50" fill="#84cc16" opacity="1.00"/>
<rect x="450" y="250" width="50" height="50" fill="#84cc16" opacity="0.98"/>
<rect x="450" y="400" width="50" height="50" fill="#ec4899" opacity="0.63"/>
<rect x="450" y="450" width="50" height="50" fill="#84cc16" opacity="0.84"/><text x="480" y="490" font-family="JetBrains Mono, monospace" font-size="22" fill="#84cc16" text-anchor="end" opacity="0.9">#78</text><text x="20" y="490" font-family="JetBrains Mono, monospace" font-size="14" fill="#3b82f6" opacity="0.8">zkCEX</text></svg>